<svg xmlns="http://www.w3.org/2000/svg" xmlns:xlink="http://www.w3.org/1999/xlink" width="500" zoomAndPan="magnify" viewBox="0 0 375 374.999991" height="500" preserveAspectRatio="xMidYMid meet" version="1.0"><defs><g/><clipPath id="8a97e901a9"><path d="M 56 71 L 319 71 L 319 304 L 56 304 Z M 56 71 " clip-rule="nonzero"/></clipPath><clipPath id="8e1235106f"><path d="M 315.144531 201.113281 L 263.203125 290.386719 C 258.300781 298.816406 249.285156 304 239.53125 304 L 135.46875 304 C 125.714844 304 116.699219 298.816406 111.796875 290.386719 L 59.855469 201.113281 C 54.960938 192.699219 54.960938 182.300781 59.855469 173.886719 L 111.796875 84.613281 C 116.699219 76.183594 125.714844 71 135.46875 71 L 239.53125 71 C 249.285156 71 258.300781 76.183594 263.203125 84.613281 L 315.144531 173.886719 C 320.039062 182.300781 320.039062 192.699219 315.144531 201.113281 Z M 315.144531 201.113281 " clip-rule="nonzero"/></clipPath><clipPath id="594cda9530"><path d="M 80 90.382812 L 295 90.382812 L 295 285.210938 L 80 285.210938 Z M 80 90.382812 " clip-rule="nonzero"/></clipPath><clipPath id="1f6406f4fb"><path d="M 289.914062 206.597656 L 255.113281 266.410156 C 248.34375 278.050781 235.894531 285.210938 222.425781 285.210938 L 152.574219 285.210938 C 139.105469 285.210938 126.65625 278.050781 119.886719 266.410156 L 85.085938 206.597656 C 78.324219 194.976562 78.324219 180.617188 85.085938 168.996094 L 119.886719 109.183594 C 126.65625 97.542969 139.105469 90.382812 152.574219 90.382812 L 222.425781 90.382812 C 235.894531 90.382812 248.34375 97.542969 255.113281 109.183594 L 289.914062 168.996094 C 296.675781 180.617188 296.675781 194.976562 289.914062 206.597656 Z M 289.914062 206.597656 " clip-rule="nonzero"/></clipPath></defs><g clip-path="url(#8a97e901a9)"><g clip-path="url(#8e1235106f)"><path fill="#10b981" d="M 51.933594 71 L 323.164062 71 L 323.164062 304 L 51.933594 304 Z M 51.933594 71 " fill-opacity="1" fill-rule="nonzero"/></g></g><g clip-path="url(#594cda9530)"><g clip-path="url(#1f6406f4fb)"><path fill="#011628" d="M 74.144531 90.382812 L 300.9375 90.382812 L 300.9375 285.210938 L 74.144531 285.210938 Z M 74.144531 90.382812 " fill-opacity="1" fill-rule="nonzero"/></g></g><g fill="#10b981" fill-opacity="1"><g transform="translate(118.637471, 239.47779)"><g><path d="M 17.421875 0 C 14.984375 0 12.910156 -0.847656 11.203125 -2.546875 C 9.503906 -4.253906 8.65625 -6.332031 8.65625 -8.78125 L 8.65625 -96.0625 C 8.65625 -98.59375 9.503906 -100.6875 11.203125 -102.34375 C 12.910156 -104.007812 14.984375 -104.84375 17.421875 -104.84375 L 51.5 -104.84375 C 54.03125 -104.84375 56.125 -104.007812 57.78125 -102.34375 C 59.445312 -100.6875 60.28125 -98.59375 60.28125 -96.0625 L 60.28125 -93.828125 C 60.28125 -91.472656 61.109375 -89.460938 62.765625 -87.796875 C 64.429688 -86.140625 66.441406 -85.3125 68.796875 -85.3125 C 71.242188 -85.3125 73.296875 -86.140625 74.953125 -87.796875 C 76.617188 -89.460938 77.453125 -91.472656 77.453125 -93.828125 L 77.453125 -96.0625 C 77.453125 -98.59375 78.300781 -100.6875 80 -102.34375 C 81.707031 -104.007812 83.785156 -104.84375 86.234375 -104.84375 L 120.296875 -104.84375 C 122.828125 -104.84375 124.921875 -104.007812 126.578125 -102.34375 C 128.242188 -100.6875 129.078125 -98.59375 129.078125 -96.0625 L 129.078125 -8.78125 C 129.078125 -6.332031 128.242188 -4.253906 126.578125 -2.546875 C 124.921875 -0.847656 122.828125 0 120.296875 0 L 109.15625 0 C 106.71875 0 104.644531 -0.847656 102.9375 -2.546875 C 101.226562 -4.253906 100.375 -6.332031 100.375 -8.78125 L 100.375 -72.46875 C 100.375 -74.914062 99.546875 -76.96875 97.890625 -78.625 C 96.234375 -80.289062 94.179688 -81.125 91.734375 -81.125 C 89.367188 -81.125 87.359375 -80.289062 85.703125 -78.625 C 84.046875 -76.96875 83.21875 -74.914062 83.21875 -72.46875 L 83.21875 -9.046875 C 83.21875 -6.597656 82.382812 -4.476562 80.71875 -2.6875 C 79.0625 -0.894531 76.96875 0 74.4375 0 L 63.296875 0 C 60.765625 0 58.664062 -0.867188 57 -2.609375 C 55.34375 -4.359375 54.515625 -6.503906 54.515625 -9.046875 L 54.515625 -72.46875 C 54.515625 -74.914062 53.679688 -76.96875 52.015625 -78.625 C 50.359375 -80.289062 48.304688 -81.125 45.859375 -81.125 C 43.503906 -81.125 41.492188 -80.289062 39.828125 -78.625 C 38.171875 -76.96875 37.34375 -74.914062 37.34375 -72.46875 L 37.34375 -8.78125 C 37.34375 -6.332031 36.515625 -4.253906 34.859375 -2.546875 C 33.203125 -0.847656 31.101562 0 28.5625 0 Z M 17.421875 0 "/></g></g></g></svg>